<svg width="48" height="48" viewBox="0 0 48 48" fill="none" xmlns="http://www.w3.org/2000/svg">
<path d="M17.6667 44C21.3467 44 24.3333 41.0133 24.3333 37.3333V30.6666H17.6667C13.9867 30.6666 11 33.6533 11 37.3333C11 41.0133 13.9867 44 17.6667 44Z" fill="#0ACF83"/>
<path d="M11 24C11 20.32 13.9867 17.3334 17.6667 17.3334H24.3333V30.6667H17.6667C13.9867 30.6667 11 27.68 11 24Z" fill="#A259FF"/>
<path d="M11 10.6667C11 6.98667 13.9867 4 17.6667 4H24.3333V17.3333H17.6667C13.9867 17.3333 11 14.3467 11 10.6667Z" fill="#F24E1E"/>
<path d="M24.3335 4H31.0002C34.6802 4 37.6668 6.98667 37.6668 10.6667C37.6668 14.3467 34.6802 17.3333 31.0002 17.3333H24.3335V4Z" fill="#FF7262"/>
<path d="M37.6668 24C37.6668 27.68 34.6802 30.6667 31.0002 30.6667C27.3202 30.6667 24.3335 27.68 24.3335 24C24.3335 20.32 27.3202 17.3334 31.0002 17.3334C34.6802 17.3334 37.6668 20.32 37.6668 24Z" fill="#1ABCFE"/>
</svg>
