<svg width="48" height="55" viewBox="0 0 48 55" fill="none" xmlns="http://www.w3.org/2000/svg">
<path d="M15.6833 23.0873H14.11L13.2517 29.0768H14.6483C15.575 29.0768 16.265 28.8393 16.7183 28.3666C17.1717 27.8916 17.4767 27.1022 17.635 25.9938C17.7883 24.9307 17.7183 24.1798 17.4283 23.7432C17.1367 23.3067 16.5567 23.0873 15.6833 23.0873V23.0873ZM24 12.8657C12.955 12.8657 4 19.2579 4 27.1429C4 35.0279 12.955 41.4223 24 41.4223C35.045 41.4223 44 35.0279 44 27.1429C44 19.2579 35.045 12.8657 24 12.8657ZM18.5667 29.7192C18.1317 30.2847 17.6083 30.7099 17.0383 30.9655C16.4783 31.2098 15.7633 31.3364 14.8967 31.3364H12.9283L12.3833 35.1387H10.0867L12.1367 20.8299H16.5533C17.8817 20.8299 18.85 21.3026 19.46 22.2504C20.07 23.1958 20.2533 24.5168 20.01 26.2132C19.9168 26.8845 19.7452 27.5312 19.5017 28.1291C19.2633 28.7058 18.9517 29.2374 18.5667 29.7192ZM25.2733 31.3364L26.1783 25.0054C26.2833 24.2861 26.2433 23.793 26.065 23.5329C25.8867 23.2705 25.505 23.1393 24.92 23.1393H23.1L21.9267 31.3387H19.6467L21.6967 17.0276H23.975L23.43 20.8322H25.46C26.7383 20.8322 27.6183 21.1352 28.1033 21.7392C28.5883 22.3431 28.7333 23.3225 28.5417 24.6774L27.5883 31.3364H25.2733V31.3364ZM37.935 26.2132C37.8433 26.8851 37.6716 27.5321 37.4267 28.1291C37.1883 28.7058 36.8767 29.2374 36.4917 29.7192C36.0564 30.2829 35.5344 30.7086 34.9633 30.9655C34.4033 31.2098 33.6883 31.3364 32.82 31.3364H30.8533L30.3083 35.141H28.0117L30.0617 20.8322H34.4767C35.805 20.8322 36.7733 21.3049 37.3833 22.2526C37.9933 23.1958 38.1783 24.5168 37.935 26.2132V26.2132ZM33.61 23.0873H32.0383L31.1783 29.0768H32.575C33.5033 29.0768 34.1933 28.8393 34.645 28.3666C35.0983 27.8916 35.4033 27.1022 35.5633 25.9938C35.7167 24.9307 35.645 24.1798 35.355 23.7432C35.065 23.3067 34.4817 23.0873 33.61 23.0873V23.0873Z" fill="#313131"/>
</svg>
