<svg width="48" height="48" viewBox="0 0 48 48" fill="none" xmlns="http://www.w3.org/2000/svg">
<path d="M37.3059 11.4645C37.1627 11.4509 34.1042 11.2241 34.1042 11.2241C34.1042 11.2241 31.9783 9.10402 31.7456 8.8707C31.5123 8.63607 31.0566 8.70607 30.8791 8.75987C30.8538 8.767 30.4156 8.90375 29.6904 9.12736C28.98 7.07473 27.7285 5.18867 25.5255 5.18867C25.4646 5.18867 25.4017 5.19126 25.3382 5.19515C24.7121 4.3636 23.9356 4 23.2648 4C18.1323 4 15.6798 10.4495 14.9111 13.7271C12.9161 14.3467 11.498 14.7888 11.3191 14.8471C10.2037 15.1984 10.1694 15.2334 10.0248 16.2873C9.91334 17.0851 7 39.7262 7 39.7262L29.6988 44L41.999 41.3252C41.999 41.3252 37.6818 11.9901 37.6546 11.7886C37.6274 11.5877 37.4511 11.4762 37.3059 11.4645ZM25.1697 10.3115C25.1697 10.3886 25.1684 10.4612 25.1684 10.5344C23.9188 10.924 22.5629 11.3453 21.2012 11.7698C21.9653 8.80783 23.3964 7.37546 24.6492 6.83557C24.9636 7.63018 25.1697 8.77218 25.1697 10.3115ZM23.1229 5.38441C23.3471 5.38441 23.5688 5.45959 23.7827 5.60801C22.1371 6.38512 20.3748 8.34571 19.6295 12.2585C18.5413 12.5968 17.4783 12.9286 16.4938 13.2346C17.3662 10.2486 19.4363 5.38441 23.1229 5.38441ZM24.0076 22.8269C24.0076 22.8269 22.6789 22.1146 21.0515 22.1146C18.6625 22.1146 18.5419 23.6208 18.5419 23.9994C18.5419 26.0701 23.913 26.8641 23.913 31.714C23.913 35.5302 21.5058 37.9866 18.2574 37.9866C14.3608 37.9866 12.3672 35.549 12.3672 35.549L13.41 32.0848C13.41 32.0848 15.4581 33.8535 17.1886 33.8535C18.3164 33.8535 18.7759 32.9591 18.7759 32.3064C18.7759 29.605 14.3692 29.4845 14.3692 25.0454C14.3692 21.3116 17.0369 17.695 22.4242 17.695C24.4976 17.695 25.5242 18.2932 25.5242 18.2932L24.0076 22.8269ZM26.5152 10.1158C26.5152 9.979 26.5165 9.84549 26.5165 9.69836C26.5165 8.42414 26.3396 7.39685 26.057 6.5828C27.1925 6.72474 27.9489 8.02359 28.4356 9.51753C27.8659 9.69642 27.2178 9.89734 26.5152 10.1158Z" fill="#95C675"/>
<path d="M37.3059 11.4645C37.1627 11.4509 34.1042 11.2241 34.1042 11.2241C34.1042 11.2241 31.9783 9.10402 31.7456 8.8707C31.5123 8.63607 31.0566 8.70607 30.8791 8.75987C30.8538 8.767 30.4156 8.90375 29.6904 9.12736C28.98 7.07473 27.7285 5.18867 25.5255 5.18867C25.4646 5.18867 25.4017 5.19126 25.3382 5.19515C24.7121 4.3636 23.9356 4 23.2648 4C18.1323 4 16.8658 10.4495 16.0972 13.7271C14.1022 14.3467 12.5713 17.7579 12.3905 17.8149C11.2764 18.1662 11.242 18.2012 11.0968 19.2557C10.9847 20.0529 7 39.7262 7 39.7262L29.6988 44L41.999 41.3252C41.999 41.3252 37.6818 11.9901 37.6546 11.7886C37.6274 11.5877 37.4511 11.4762 37.3059 11.4645ZM25.1697 10.3115C25.1697 10.3886 25.1684 10.4612 25.1684 10.5344C23.9188 10.924 22.5629 11.3453 21.2012 11.7698C21.9653 8.80783 23.3964 7.37546 24.6492 6.83557C24.9636 7.63018 25.1697 8.77218 25.1697 10.3115ZM23.1229 5.38441C23.3471 5.38441 23.5688 5.45959 23.7827 5.60801C22.1371 6.38512 20.3748 8.34571 19.6295 12.2585C18.5413 12.5968 17.4783 12.9286 16.4938 13.2346C17.3662 10.2486 19.4363 5.38441 23.1229 5.38441ZM24.0076 22.8269C24.0076 22.8269 22.6789 22.1146 21.0515 22.1146C18.6625 22.1146 18.5419 23.6208 18.5419 23.9994C18.5419 26.0701 23.913 26.8641 23.913 31.714C23.913 35.5302 21.5058 37.9866 18.2574 37.9866C14.3608 37.9866 12.3672 35.549 12.3672 35.549L13.41 32.0848C13.41 32.0848 15.4581 33.8535 17.1886 33.8535C18.3164 33.8535 18.7759 32.9591 18.7759 32.3064C18.7759 29.605 14.3692 29.4845 14.3692 25.0454C14.3692 21.3116 17.0369 17.695 22.4242 17.695C24.4976 17.695 25.5242 18.2932 25.5242 18.2932L24.0076 22.8269ZM26.5152 10.1158C26.5152 9.979 26.5165 9.84549 26.5165 9.69836C26.5165 8.42414 26.3396 7.39685 26.057 6.5828C27.1925 6.72474 27.9489 8.02359 28.4356 9.51753C27.8659 9.69642 27.2178 9.89734 26.5152 10.1158Z" fill="#79B259"/>
<path d="M29.6984 43.9993L41.9986 41.3252C41.9986 41.3252 37.6814 11.9901 37.6542 11.7886C37.627 11.587 37.4513 11.4762 37.3055 11.4645C37.1623 11.4509 34.1037 11.224 34.1037 11.224C34.1037 11.224 31.9779 9.10401 31.7452 8.87069C31.6207 8.74495 31.4347 8.7093 31.2591 8.70801C30.7924 9.49873 30.889 11.0004 30.889 11.0004L29.4424 43.9507L29.6984 43.9993Z" fill="#55932C"/>
<path d="M25.5258 5.18928C25.4648 5.18928 25.402 5.19187 25.3385 5.19576C24.7124 4.36421 23.9359 4.00061 23.2651 4.00061C18.1533 4.00061 15.6988 10.3996 14.9204 13.6882L16.5064 13.1963C17.384 10.209 19.4521 5.38437 23.1231 5.38437C23.3474 5.38437 23.5691 5.45955 23.7829 5.60797C22.1419 6.38249 20.3841 8.33595 19.6362 12.2273L21.2112 11.7412C21.9773 8.79807 23.4025 7.37348 24.6508 6.83553C24.9645 7.63079 25.1712 8.77215 25.1712 10.3115C25.1712 10.3815 25.1712 10.4482 25.1699 10.515L26.5168 10.0982C26.5168 9.96859 26.5181 9.83897 26.5181 9.69832C26.5181 8.4241 26.3411 7.39681 26.0585 6.58276C27.1902 6.72405 27.9459 8.01707 28.432 9.50453L29.6881 9.11501C28.9758 7.06821 27.7249 5.18928 25.5258 5.18928Z" fill="#4A7A2B"/>
<path d="M34.6172 11.2629C34.31 11.239 34.1032 11.224 34.1032 11.224C34.1032 11.224 31.9774 9.10401 31.7447 8.87069C31.6203 8.74495 31.4342 8.7093 31.2586 8.70801C30.792 9.49873 30.8885 11.0004 30.8885 11.0004L29.4419 43.9507L29.6986 43.9993L36.2434 42.576L34.6172 11.2629Z" fill="#4C822A"/>
</svg>
