<svg width="48" height="48" viewBox="0 0 48 48" fill="none" xmlns="http://www.w3.org/2000/svg">
<path d="M24 44C35.0457 44 44 35.0457 44 24C44 12.9543 35.0457 4 24 4C12.9543 4 4 12.9543 4 24C4 35.0457 12.9543 44 24 44Z" fill="#4353FF"/>
<path d="M29.8748 21.625L28.0623 27.3375C28.0623 26.9 26.8123 17.425 26.8123 17.425C23.9373 17.425 22.4123 19.4625 21.6123 21.625L19.3998 27.35C19.3998 26.9375 19.0873 21.675 19.0873 21.675C18.9806 20.5358 18.4598 19.4753 17.6235 18.6943C16.7873 17.9134 15.6937 17.4662 14.5498 17.4375L16.8998 31.7875C19.8998 31.7875 21.5248 29.75 22.3623 27.5875L24.2373 22.7125C24.2373 22.9125 25.4873 31.7875 25.4873 31.7875C26.714 31.786 27.9084 31.3938 28.8973 30.6679C29.8862 29.9419 30.6182 28.9199 30.9873 27.75L35.2373 17.425C32.2373 17.425 30.6623 19.4625 29.8623 21.625H29.8748Z" fill="white"/>
</svg>
