<svg width="272" height="519" viewBox="0 0 272 519" fill="none" xmlns="http://www.w3.org/2000/svg">
<path d="M63.9649 284.726L64.0088 285.224L63.9649 284.726ZM121.989 517.821C137.727 476.721 153.671 415.785 150.416 366.505C148.788 341.865 142.366 320.212 128.794 305.394C115.243 290.598 94.4897 282.536 64.0088 285.224L63.921 284.228C94.631 281.52 115.721 289.639 129.532 304.718C143.322 319.775 149.779 341.693 151.413 366.439C154.682 415.93 138.681 477.025 122.923 518.179L121.989 517.821ZM64.0088 285.224C25.8091 288.591 7.35694 301.355 2.71035 316.653C-1.94219 331.97 7.12842 350.197 24.8508 364.762C60.2422 393.847 129.577 407.798 189.11 353.788L189.782 354.529C129.834 408.915 59.9388 394.892 24.2158 365.534C6.38097 350.877 -3.0769 332.265 1.75352 316.362C6.5899 300.44 25.6322 287.603 63.921 284.228L64.0088 285.224ZM189.11 353.788C248.707 299.722 270.184 215.841 270.497 143.298C270.653 107.033 265.518 73.6354 257.234 48.258C253.092 35.5686 248.167 24.9006 242.734 16.8856C237.296 8.86226 231.382 3.54642 225.28 1.47343L225.602 0.526578C231.998 2.69948 238.067 8.21692 243.562 16.3245C249.063 24.4403 254.024 35.2009 258.185 47.9477C266.508 73.4431 271.653 106.949 271.497 143.302C271.184 215.994 249.668 300.2 189.782 354.529L189.11 353.788Z" fill="#49AD09"/>
</svg>
